<?xml version="1.0" encoding="UTF-8"?>
<svg viewBox="0 0 360 359" version="1.1" xmlns="http://www.w3.org/2000/svg" xmlns:xlink="http://www.w3.org/1999/xlink">
    <title>UNSA</title>
    <defs>
        <polygon id="path-1" points="0.835 0.945 184.143 0.945 184.143 80.045 0.835 80.045"></polygon>
        <path d="M124.08,0.945 C103.962508,0.827381695 84.0387009,4.87778864 65.564,12.841 C43.6958345,22.6000985 24.6146074,37.6717516 10.056,56.685 C7.01550285,60.4366936 4.27820599,64.4242657 1.87,68.61 C-2.836,77.188 10.287,84.87 14.943,76.283 C16.6370033,73.3008734 18.5282086,70.4351679 20.604,67.705 L21.942,65.905 L22.857,64.759 C27.2930449,59.2357166 32.1437711,54.0587113 37.367,49.273 C39.389052,47.4058072 41.4683798,45.601611 43.602,43.863 C46.016,41.852 46.619,41.419 49.636,39.277 C54.9999954,35.4939979 60.6363603,32.1127806 66.499,29.161 C79.6466661,22.5828073 93.8528865,18.3785596 108.463,16.742 C130.907,14.339 153.251,17.557 174.771,24.042 C184.163,26.868 188.175,12.197 178.793,9.372 C161.222579,3.95679705 142.958275,1.12451628 124.573,0.964 L124.079,0.944 L124.08,0.945 Z" id="path-3"></path>
        <linearGradient x1="4.331%" y1="47.654%" x2="92.788%" y2="47.654%" id="linearGradient-5">
            <stop stop-color="#FFFFFF" offset="0%"></stop>
            <stop stop-color="#FFFFFF" offset="100%"></stop>
        </linearGradient>
    </defs>
    <g id="Page-1" stroke="none" stroke-width="1" fill="none" fill-rule="evenodd">
        <g id="LOGO_UNSA">
            <g id="Group" fill-rule="nonzero">
                <path d="M359.075,179.483 C359.042985,191.697822 357.769439,203.877756 355.274,215.835 L355.274,215.975 C355.214,216.317 355.133,216.669 355.053,216.981 C354.610403,219.044955 354.12731,221.100018 353.604,223.145 C346.176217,252.303094 331.499403,279.110888 310.937,301.078 C310.042,302.084 309.127,303.019 308.192,303.964 C299.143017,313.234898 289.11961,321.501794 278.296,328.621 C276.543979,329.768839 274.773754,330.888649 272.986,331.98 C258.466403,340.804784 242.761764,347.512398 226.347,351.9 L222.104,353.027 C187.440087,361.409226 151.064189,359.266641 117.624,346.873 C116.182317,346.343319 114.750731,345.786554 113.33,345.203 C104.207006,341.542704 95.4043187,337.12982 87.013,332.01 C85.0838605,330.835251 83.1765366,329.625045 81.292,328.38 C72.062073,322.25087 63.4204081,315.279021 55.478,307.554 L54.825,306.921 C11.445,264.495 -7.488,202.98 4.529,143.505 C16.546,84.029 57.876,34.69 114.325,12.435 C115.760981,11.862451 117.205824,11.3123838 118.659,10.785 C153.575859,-1.86398367 191.546728,-3.42299511 227.383,6.321 C305.323,27.725 359.283,98.658 359.116387,179.483" id="Path" fill="#00ABE9"></path>
                <path d="M118.66,10.785 L118.528,35.473 L118.528,47.993 L117.996,220.843 L117.905,259.688 L117.905,262.886 L117.845,290.68 L117.845,311.768 L117.704,328.772 L117.704,346.802 C116.261315,346.266568 114.826497,345.710176 113.4,345.133 L113.4,259.688 L113.52,228.616 L113.52,206 L113.993,39.073 L113.993,36.146 L114.103,12.415 C115.539313,11.8424414 116.984489,11.2923741 118.438,10.765" id="Path" fill="#FFFFFF"></path>
                <path d="M118.7,48.002 L118.197,232.608 L118.197,311.748 L114.044,311.748 L114.284,228.616 L81.543,228.526 L81.543,222.16 C74.876,227.55 65.685,231.683 56.193,231.632 C33.808,231.522 22.606,216.136 22.606,196.497 L22.606,155.147 L7.311,155.238 L7.311,132.472 L13.585,132.472 L14.702,132.532 L15.617,132.532 L43.622,132.582 L43.622,192.284 C43.622,205.799 53.377,208.232 57.902,208.232 C63.835,208.232 72.252,202.662 79.642,193.058 L79.642,155.378 L63.955,155.318 L63.955,132.683 L100.629,132.853 L100.629,205.97 L114.345,205.97 L114.345,47.942 L116.728,47.942 L118.207,48.002 L118.7,48.002 L118.7,48.002 Z M225.663,288.55 L221.872,288.55 L197.798,288.47 L197.617,288.167 L191.503,267.694 L188.205,262.927 L186.325,253.495 L183.488,248.839 L179.678,233.514 L172.93,216.147 L169.993,213.06 L166.725,216.328 L164.151,252.529 L165.096,288.339 L164.784,288.339 L142.531,288.248 L142.431,288.248 L144.241,254.35 L144.241,182.159 L144.914,170.665 C144.914,170.665 145.638,133.277 147.358,128.561 C148.846,123.885 156.308,124.317 159.888,128.491 C163.508,132.513 173.06,155.028 173.06,155.028 L178.088,162.529 L189.924,192.446 L193.444,206.524 L196.772,210.838 L197.969,210.838 L201.549,147.848 C201.549,147.848 201.689,127.847 206.003,125.997 C210.317,124.147 212.973,122.145 216.793,125.604 C220.615,129.064 222.736,134.876 222.736,134.876 L225.663,288.55 L225.663,288.55 Z" id="Shape" fill="#FFFFFF"></path>
                <path d="M165.127,290.067 L165.127,291.404 L164.967,293.004 L163.83,294.381 L161.598,296.091 L158.198,297.659 L155.926,298.142 L150.255,297.267 L145.378,296.171 L143.055,293.858 L142.542,288.227 L142.542,287.996 L162.292,286.698 L164.806,288.328 L165.107,288.468 L165.107,288.87 L165.127,290.067 L165.127,290.067 Z M223.23,285.723 L223.11,288.539 L223.09,293.013 L222.064,294.15 L221.883,294.381 L219.741,296.281 L217.599,297.669 L214.119,298.142 L210.972,298.102 L207.302,297.669 L202.777,296.03 L200.082,292.792 L197.849,288.589 L197.809,288.469 L197.618,288.166 L197.668,288.166 L221.883,285.874 L223.23,285.723 L223.23,285.723 Z" id="Shape" fill="#FFFFFF"></path>
                <path d="M226.347,351.9 L226.347,285.622 L226.407,262.866 L226.407,259.688 L226.488,229.943 L227.273,38.158 L227.273,29.088 L227.343,10.715 L227.343,6.321 C225.922349,5.93698589 224.4976,5.5682978 223.069,5.215 L223.069,38.067 L222.707,136.192 L222.707,136.252 L222.396,225.75 L222.305,259.638 L222.305,352.936 L226.347,351.901 L226.347,351.9 Z M291.318,225.458 C288.925,206.282 281.464,193.33 272.675,178.196 C237.64,91.716 288.14,59.818 288.14,59.818 C288.14,59.818 275.63,26.241 255.961,56.509 C252.995,59.677 239.198,97.256 236.855,120.234 C233.335,155.429 241.43,177.27 253.819,201.535 C259.511,212.737 263.312,221.858 265.222,231.703 C271.749,287.794 235.246,322.206 228.488,326.61 L228.308,326.61 C228.180502,326.667287 228.056007,326.731037 227.935,326.801 L228.136,326.801 L256.293,329.768 L263.583,330.582 L263.724,330.582 C264.448,329.577 264.448,329.406 264.448,329.406 L264.338,329.406 C270.271,320.727 276.053,312.311 280.226,302.396 C280.126,304.467 298.477,275.356 291.287,225.518 L291.317,225.458 L291.318,225.458 Z" id="Shape" fill="#FFFFFF"></path>
                <path d="M266.792,325.675 C266.792,325.675 266.792,325.865 266.108,326.872 C265.888,327.254 265.465,327.766 264.952,328.44 L264.802,328.873 C263.052,332.07 253.428,341.02 253.428,341.02 C253.428,341.02 241.2,348.743 233.075,348.421 C229.183,348.481 224.225,345.505 224.225,345.505 C224.225,345.505 217.689,340.869 218.283,337.46 C218.876,334.051 219.489,333.086 221.561,331.477 C223.231,330.12 229.022,325.816 231.687,323.935 C232.01,323.758 232.304,323.535 232.562,323.272 L232.914,323.08 L233.095,323.08 L260.346,325.162 L260.396,325.162 L266.732,325.655 L266.792,325.675 L266.792,325.675 Z M355.274,215.825 L353.806,214.618 L353.323,214.196 L353.273,214.025 L349.974,217.152 L349.642,217.494 L347.581,219.505 L347.511,219.505 L347.279,219.716 C346.535,220.46 345.882,221.044 345.379,221.576 C344.876,222.109 344.192,222.582 343.679,222.964 L342.171,224.171 C341.435194,224.801633 340.628821,225.34492 339.768,225.79 C339.258453,226.080702 338.684491,226.23983 338.098,226.253 L337.948,226.253 C337.397747,226.255864 336.865137,226.059022 336.449,225.699 C336.247898,225.551315 336.088682,225.353846 335.987,225.126 C335.929652,224.894577 335.889212,224.65929 335.866,224.422 C335.847101,224.275273 335.847101,224.126727 335.866,223.98 L335.866,223.819 C335.986,222.28 337.022,217.222 339.094,208.685 C340.431,203.808 342.05,197.925 343.911,191.218 L352.528,160.115 C352.78,159.28 352.991,158.677 353.142,158.215 C353.154,158.086 353.174,157.958 353.202,157.832 C353.306,157.352 353.447,156.882 353.625,156.425 C353.744,156.103 353.765,155.753 353.685,155.419 C353.625,155.158 353.313,155.067 352.78,155.067 L352.317,155.117 L351.573,155.117 L350.849,155.258 L342.744,156.143 C342.268563,156.112081 341.802969,156.288183 341.467,156.626 C341.199,157.096 340.986,157.595 340.834,158.114 L339.274,163.374 L338.903,164.65 L338.47,163.464 C338.318,163.028 338.14,162.601 337.937,162.187 C337.767,161.885 337.676,161.533 337.515,161.272 C337.355,161.01 337.284,160.95 337.173,160.769 L337.023,160.527 C336.932,160.307 336.721,160.105 336.57,159.813 C336.186,159.301 335.77,158.814 335.323,158.355 C335.092,158.165 334.84,157.983 334.539,157.742 C333.791625,157.191583 332.981227,156.732335 332.125,156.374 C331.630127,156.084495 331.099209,155.861571 330.546,155.711 C330.275256,155.584101 329.980942,155.515291 329.682,155.509 C328.213624,155.091263 326.692536,154.88816 325.166,154.906 L324.794,154.906 C322.642,154.892 320.495,155.108 318.389,155.55 C312.265,156.626 306.322,159.622 300.399,164.328 C296.3397,167.698246 292.605965,171.44236 289.247,175.511 C285.484761,179.960359 282.161,184.762649 279.322,189.851 C274.897,197.962 272.682,205.879 272.675,213.602 C272.552401,217.717467 273.403502,221.803711 275.159,225.528 C275.851396,226.849069 276.691435,228.087321 277.663,229.219 C277.934,229.501 278.145,229.752 278.397,230.034 C279.39437,231.054066 280.504116,231.957831 281.705,232.728 C284.193087,234.542199 287.156597,235.59074 290.232,235.745 C290.532,235.786 290.835,235.803 291.137,235.795 L292.505,235.795 C294.999778,235.63711 297.458584,235.119077 299.805,234.257 C304.307744,232.310325 308.433199,229.587213 311.993,226.212 C314.204447,224.317741 316.284263,222.275011 318.218,220.098 C319.223,218.932 320.128,217.725 321.003,216.548 C321.283,216.263 321.533,215.95 321.747,215.613 C322.029,215.141 322.401,214.759 322.673,214.316 C322.944,213.874 323.326,213.431 323.618,212.959 C323.788,212.687 324,212.476 324.161,212.204 C324.941062,211.158942 325.672505,210.078461 326.353,208.966 C325.619,211.36 324.925,214.256 324.221,217.716 C324.141,218.067 324.071,218.419 324,218.721 C323.32636,221.669112 322.912443,224.670599 322.763,227.691 C322.743779,228.912076 322.97663,230.123992 323.447,231.251 C323.613865,231.810239 323.868358,232.339478 324.201,232.819 C324.348,232.975 324.461,233.16 324.533,233.362 C324.784,233.603 324.945,233.764 325.156,233.945 C325.352,234.127 325.561,234.295 325.78,234.448 C326.624979,235.050788 327.613096,235.421762 328.646,235.524 C328.976,235.592 329.314,235.622 329.651,235.614 L330.516,235.614 C333.795083,235.279722 336.922438,234.063682 339.566,232.095 L339.908,231.844 C340.099,231.743 340.21,231.592 340.391,231.502 C340.907,231.145 341.391,230.745 341.839,230.305 C345.565858,227.122312 348.98646,223.597589 352.056,219.777 C353.122478,218.517492 354.171577,217.243372 355.203,215.955 L355.293,215.855 L355.273,215.825 L355.274,215.825 Z M290.916,223.678 C290.723342,223.44807 290.545325,223.20626 290.383,222.954 C289.888187,222.352844 289.497458,221.673124 289.227,220.943 C288.280626,218.602516 287.858398,216.083145 287.99,213.562 C287.99,212.506 288.04,211.43 288.13,210.324 C288.848,201.784 292.378,191.874 298.72,180.599 C299.956,178.588 301.123,176.627 302.26,174.958 C307.81,166.712 313.602,161.613 319.736,159.733 C321.564926,159.122888 323.479996,158.810575 325.408,158.808 L325.941,158.868 C327.068482,158.86393 328.184589,159.093417 329.219,159.542 C329.369,159.642 329.531,159.723 329.702,159.783 C330.013,159.893 330.245,160.075 330.526,160.196 C330.808,160.316 331.029,160.547 331.361,160.799 C331.693,161.05 332.105,161.453 332.477,161.724 C332.589,161.971 332.767,162.184 332.99,162.337 C333.343,162.784 333.65,163.267 333.905,163.775 C334.953692,166.038459 335.433601,168.523826 335.303,171.015 C335.134503,178.41252 333.511306,185.704502 330.526,192.475 C330.286,193.116 329.997,193.738 329.661,194.335 C328.656,196.688 327.409,199.152 326.011,201.605 C325.241578,203.004405 324.44037,204.386097 323.608,205.749 C322.548492,207.655849 321.383345,209.502056 320.118,211.279 C313.14,221.67 305.886,226.863 298.358,226.856 C297.267119,226.870807 296.181863,226.697261 295.15,226.343 C294.046136,226.035572 293.018569,225.501183 292.133,224.774 C292.003,224.644 291.841,224.523 291.691,224.382 C291.54,224.242 291.308,224.05 291.117,223.869 L290.907,223.669 L290.917,223.679 L290.916,223.678 Z" id="Shape" fill="#FFFFFF"></path>
                <path d="M355.917,217.232 L355.435,216.81 L355.435,216.66 L355.063,217.001 L352.136,219.797 L351.835,220.098 L349.693,222.18 L349.623,222.18 L349.391,222.391 C348.647,223.125 347.993,223.708 347.491,224.251 C346.988,224.794 346.294,225.257 345.781,225.649 L344.283,226.856 C343.544583,227.478021 342.738113,228.014438 341.879,228.455 C341.371591,228.751078 340.797319,228.913485 340.21,228.927 C339.608631,228.954483 339.019143,228.753343 338.56,228.364 C338.360932,228.210077 338.20236,228.009975 338.098,227.781 C338.0362,227.553969 337.996021,227.3216 337.978,227.087 C337.964345,226.943324 337.964345,226.798676 337.978,226.655 L337.978,226.293 C338.148,224.593 339.204,219.575 341.196,211.34 C342.533,206.473 344.142,200.59 346.002,193.873 L354.59,162.85 C354.851,162.006 355.063,161.402 355.203,160.94 C355.296258,160.325998 355.461739,159.725167 355.696,159.15 C355.81,158.81 355.831,158.445 355.756,158.094 C355.696,157.842 355.384,157.752 354.851,157.752 L354.389,157.802 L353.645,157.802 L353.162,157.892 L352.921,157.943 L344.785,158.828 C344.303923,158.804611 343.835723,158.987598 343.498,159.331 C343.231699,159.796844 343.022524,160.29309 342.875,160.809 L340.945,167.345 L340.512,166.159 C340.358012,165.720572 340.180078,165.290926 339.979,164.872 C339.808,164.57 339.717,164.228 339.556,163.977 C339.396,163.725 339.326,163.625 339.204,163.444 C339.084,163.263 339.114,163.293 339.074,163.222 C339.034,163.152 338.762,162.79 338.621,162.508 C338.231,161.998 337.815,161.508 337.374,161.04 L337.103,160.84 L336.58,160.437 C335.832923,159.883415 335.022544,159.420821 334.166,159.059 C333.674907,158.767378 333.143052,158.550659 332.588,158.416 C332.320137,158.278864 332.023918,158.206265 331.723,158.204 C330.254946,157.786359 328.734202,157.583256 327.208,157.601 L326.836,157.601 C324.683,157.591 322.536,157.811 320.43,158.255 C314.306,159.321 308.363,162.277 302.43,167.034 C298.378847,170.41313 294.648957,174.159758 291.288,178.226 C287.349748,182.863855 283.899239,187.894688 280.991,193.239 C276.808,201.109 274.716,208.799 274.716,216.307 C274.593166,220.42035 275.447901,224.504163 277.21,228.223 C277.548,228.873 277.92,229.504 278.326,230.114 C278.746,230.737 279.203,231.335 279.694,231.904 C279.955,232.185 280.166,232.437 280.428,232.728 C281.426416,233.754423 282.539755,234.662409 283.746,235.434 C286.224651,237.259474 289.188907,238.30904 292.264,238.45 L292.626,238.45 C292.81,238.46 292.995,238.46 293.179,238.45 C296.137374,238.433665 299.070383,237.903098 301.847,236.882 C306.347901,234.937446 310.470422,232.214036 314.025,228.837 C316.241599,226.9453 318.324578,224.902416 320.259,222.723 C321.265,221.566 322.169,220.35 323.045,219.173 C323.321,218.885 323.57,218.573 323.789,218.238 C323.9,218.058 324.021,217.883 324.151,217.715 C324.341,217.464 324.543,217.212 324.714,216.941 C325.046,216.478 325.368,216.056 325.669,215.593 C325.83,215.312 326.041,215.101 326.202,214.819 C326.987278,213.779866 327.715679,212.698948 328.384,211.581 C327.58,214.216 326.826,217.484 326.041,221.406 C325.36736,224.354112 324.953443,227.355599 324.804,230.376 C324.790915,231.593294 325.023556,232.800715 325.488,233.926 C325.548,234.122 325.621,234.313 325.709,234.498 C325.852,234.851 326.03,235.188 326.242,235.504 C326.382,235.669 326.494,235.856 326.574,236.057 L327.198,236.64 C328.148,237.566 329.386,238.14 330.708,238.27 C331.038,238.336 331.375,238.37 331.713,238.37 C332.001,238.386 332.29,238.386 332.578,238.37 C335.855684,238.043266 338.983381,236.83366 341.628,234.87 L341.98,234.609 C342.17,234.509 342.292,234.347 342.463,234.257 C342.979517,233.904528 343.464048,233.507333 343.911,233.07 C347.414203,230.101764 350.632513,226.812814 353.524,223.246 C354.761,221.808 356.038,220.229 357.396,218.58 L355.917,217.232 L355.917,217.232 Z M328.113,204.25 C327.329619,205.638031 326.528218,207.015814 325.709,208.383 C324.64513,210.289528 323.477027,212.135993 322.21,213.914 C315.231,224.305 307.974,229.497 300.44,229.491 C299.352105,229.50517 298.269914,229.331627 297.241,228.978 C296.14174,228.664713 295.116278,228.134642 294.225,227.419 C293.853,227.067 293.41,226.715 292.988,226.293 C292.795062,226.070296 292.61701,225.83512 292.455,225.589 C291.960771,224.987267 291.569796,224.307707 291.298,223.578 C291.138,223.226 291.007,222.854 290.876,222.472 C290.447623,221.104834 290.194271,219.688883 290.122,218.258 C290.122,217.604 290.062,216.931 290.122,216.247 C290.122,207.026 293.662,196.015 300.862,183.294 C302.088,181.283 303.255,179.272 304.392,177.653 C309.942,169.397 315.734,164.308 321.868,162.428 C323.696453,161.814828 325.611482,161.499146 327.54,161.493 L328.073,161.563 C329.200393,161.559823 330.316319,161.789273 331.351,162.237 C331.501,162.337 331.663,162.418 331.834,162.478 C332.135,162.588 332.366,162.77 332.658,162.901 C332.95,163.031 333.161,163.242 333.493,163.494 C333.644,163.602 333.789,163.72 333.925,163.846 C334.156,164.046 334.378,164.258 334.609,164.429 C334.729,164.669 334.905,164.875 335.122,165.032 C336.691,167.044 337.485,169.889 337.445,173.701 C337.445,180.368 335.815,187.568 332.658,195.17 C332.41,195.808 332.121,196.43 331.793,197.03 C330.788,199.373 329.541,201.837 328.153,204.31 L328.113,204.25 L328.113,204.25 Z" id="Shape" fill="#DC5C3B"></path>
            </g>
            <g id="Clipped" transform="translate(146.813000, 56.584000) rotate(2.000000) translate(-146.813000, -56.584000) translate(54.313000, 16.084000)">
                <mask id="mask-2" fill="white">
                    <use xlink:href="#path-1"></use>
                </mask>
                <g id="a"></g>
                <g id="Group" opacity="0.81" mask="url(#mask-2)">
                    <g id="Clipped">
                        <mask id="mask-4" fill="white">
                            <use xlink:href="#path-3"></use>
                        </mask>
                        <g id="c"></g>
                        <polygon id="Path" fill="url(#linearGradient-5)" fill-rule="nonzero" mask="url(#mask-4)" points="-2.997 0.885 188.045 0.885 188.045 84.81 -2.997 84.81"></polygon>
                    </g>
                </g>
            </g>
        </g>
    </g>
</svg>
